PathFileType	4	(X/Y/Z)	RBDS024\RBDS024runT25.trc
DataRate	CameraRate	NumFrames	NumMarkers	Units	OrigDataRate	OrigDataStartFrame	OrigNumFrames
150.000000	150.000000	5	33	mm	150.000000	562	4500
Frame#	Time	L.ASIS			L.Heel.Bottom			L.Heel.Lateral			L.Heel.Top			L.Iliac.Crest			L.MT1			L.MT5			L.PSIS			L.Shank.Bottom.Lateral			L.Shank.Bottom.Medial			L.Shank.Top.Lateral			L.Shank.Top.Medial			L.Thigh.Bottom.Lateral			L.Thigh.Bottom.Medial			L.Thigh.Top.Lateral			L.Thigh.Top.Medial			R.ASIS			R.ASY			R.Heel.Bottom			R.Heel.Lateral			R.Heel.Top			R.Iliac.Crest			R.MT1			R.MT5			R.PSIS			R.Shank.Bottom.Lateral			R.Shank.Bottom.Medial			R.Shank.Top.Lateral			R.Shank.Top.Medial			R.Thigh.Bottom.Lateral			R.Thigh.Bottom.Medial			R.Thigh.Top.Lateral			R.Thigh.Top.Medial			
		X1	Y1	Z1	X2	Y2	Z2	X3	Y3	Z3	X4	Y4	Z4	X5	Y5	Z5	X6	Y6	Z6	X7	Y7	Z7	X8	Y8	Z8	X9	Y9	Z9	X10	Y10	Z10	X11	Y11	Z11	X12	Y12	Z12	X13	Y13	Z13	X14	Y14	Z14	X15	Y15	Z15	X16	Y16	Z16	X17	Y17	Z17	X18	Y18	Z18	X19	Y19	Z19	X20	Y20	Z20	X21	Y21	Z21	X22	Y22	Z22	X23	Y23	Z23	X24	Y24	Z24	X25	Y25	Z25	X26	Y26	Z26	X27	Y27	Z27	X28	Y28	Z28	X29	Y29	Z29	X30	Y30	Z30	X31	Y31	Z31	X32	Y32	Z32	X33	Y33	Z33	

563	3.746666666666667	2206.934038564787	971.7896412646646	874.1868315785457	1718.251394391517	110.6995364011721	971.9564597734603	1745.200514281328	115.3069216513396	927.0321757882326	1741.971079673761	148.1870448859106	967.5609445761443	2123.439998759497	1043.116090144656	826.9692988700989	1928.375689462296	45.21930215479107	1009.984076247664	1887.266487614264	41.94423391284792	895.2290519559533	2030.860012106355	1024.248042072574	948.3612318288577	1853.480433659219	206.1043890185055	900.8508279304622	1818.452561837907	234.03634308032	925.7252925560132	1891.535571576076	272.0281614414236	873.3264382331895	1858.0710029012	304.0340667255743	899.1543587641758	2057.266663755179	606.1564087726417	830.4761967713046	2000.596290128741	612.5618274116709	873.5469142894393	2055.112074660619	715.5915368445025	816.27643245391	2003.996976457933	722.5597579311	861.4549887737959	2211.375241689026	977.3130781752681	1106.814817185978	2162.395453124926	165.7689025080735	1069.484943433363	1976.821841899779	216.0067346038274	1042.688825225604	2009.193065736351	217.3656162937213	1090.651436382075	2006.704665877177	248.8242544577298	1044.272778005185	2142.736060881829	1052.102995746608	1162.437119527133	2168.733170162091	110.0291539058037	1018.487220060884	2135.727529334402	122.9015008531022	1129.024527051298	2034.102696643462	1021.655690291642	1052.297928375219	2110.643551144398	306.8358745277287	1104.963060383508	2084.443909231805	332.7603392782306	1063.194700878205	2152.947554812231	375.3222888275894	1118.213452065836	2127.643740995821	399.1864490415136	1077.372837163647	2286.428660104706	641.5635329456925	1151.673020200806	2233.791384004655	609.4959015972134	1112.688014303159	2217.585139070042	724.1816936419151	1172.178660432158	2166.314248976327	691.1748441520623	1137.996593857743	
564	3.753333333333333	2208.392972929767	977.0717162000292	875.5230635161499	1706.672725421201	120.5197092833707	970.6306988114449	1733.925083788217	123.4642081948924	925.7147634549715	1731.840739339751	156.9115650334501	965.8906749299597	2127.601572009006	1049.156064839026	827.6837865904045	1913.512277510796	46.18032332851528	1009.573331005525	1872.436233877818	43.27178514145724	894.826801265069	2032.451670125845	1030.55079246911	947.9259807449495	1841.99147165389	213.4590347446756	899.4101341407969	1807.456579529555	240.9512786759737	925.4531075602649	1879.626164623912	279.8062598939731	872.3592265719699	1846.580106228886	311.3127297991419	899.3310644098619	2049.73479450381	613.3625032139055	830.3011796003576	1993.745647233235	621.1422741350581	874.0956331927484	2050.533751152016	722.8959627374957	816.5951673816185	2000.013932995044	731.0444525960064	862.1763432951407	2211.94842774796	985.0129094488173	1107.120031237126	2182.141149414784	160.742634906848	1065.882429783139	1993.977485476501	200.3060523458641	1039.433437116113	2026.114517101696	203.1359548569644	1087.448763675031	2021.844263680267	234.8243757614067	1041.369760398725	2143.109637377413	1060.549643362849	1162.172279004372	2191.83293310591	106.061432261442	1014.35278431032	2158.074447853999	115.8429458476511	1124.956217843514	2035.092398728378	1028.415118412006	1052.145769868443	2122.312570372338	298.4158571578571	1102.540302011665	2094.766392770818	323.0605453194333	1060.850120466892	2160.617560560216	369.1223126128062	1116.348205403066	2134.10887155664	391.7386310483246	1075.591597364303	2285.536809462104	647.552723309387	1151.345724752364	2232.558036119796	615.7177391501706	1112.699421643762	2217.205257400959	730.4701956282247	1172.400332371712	2165.620647397457	697.8246904048229	1138.453217810786	
565	3.76	2209.8819110819	982.2513306718696	876.8787955981539	1695.833697539847	130.7714658796417	969.1278832463436	1723.310163774059	131.9916732830738	924.2417491514373	1722.487671511274	165.9506208973568	964.0457818103813	2131.613277905233	1055.169942276754	828.503869835823	1899.02056137248	47.45069165923702	1009.022502285447	1857.890040675284	44.86712100661633	894.3114999678453	2034.047529459865	1036.728819922143	947.57599189977	1831.25413888773	220.9060906055082	897.8272936489338	1797.197178411695	247.9518594355263	924.9670725976158	1868.499480663286	287.6640334707653	871.2669098094823	1835.881810286611	318.6698556504321	899.3610503953532	2042.698724067972	620.5708795342894	830.0101019917928	1987.43004922255	629.5860789940904	874.5611794071108	2046.231047458529	730.1468706601258	816.8684778083028	1996.396350282984	739.329073884039	862.9246231889141	2212.465481749241	992.4012899996058	1107.447639027298	2202.061097447849	156.1770522721627	1062.079218824847	2011.990885640038	184.9310426998335	1036.120682075615	2043.85069390216	189.1630971081928	1084.169859263708	2037.736077795669	221.023867393855	1038.444390792843	2143.458365699837	1068.85132124105	1161.848250043686	2215.002828390076	102.8177179444064	1009.962661559254	2180.777919473273	109.3297434737578	1120.662014014836	2036.157255806296	1034.989451959561	1052.023400086573	2134.409918723774	289.9169264526053	1100.130806941895	2105.519810082095	313.262772847367	1058.612717277767	2168.580504698005	362.5919822629925	1114.589397680884	2140.828579190294	383.9533957158529	1074.010199465317	2284.152467092912	652.9949062212847	1151.026424870691	2230.741005911263	621.5039861858504	1112.754201000499	2216.545957763844	736.3737707590807	1172.59378802434	2164.571409388174	704.2248316650744	1138.911933144657	
566	3.766666666666667	2211.360691669434	987.2789749586706	878.198919076168	1685.73699540569	141.4014477160057	967.5095832963666	1713.322595354309	140.8589165622363	922.6634194973561	1713.886688572171	175.2553237911376	962.0762756773059	2135.384705304357	1061.105756014674	829.3932724557385	1884.91945920204	49.08550850432117	1008.307274008063	1843.603683427087	46.79575156067513	893.6946348432353	2035.614867278016	1042.74333892457	947.3303009933744	1821.266441961335	228.3639430850794	896.1420951743173	1787.655235476239	254.9735061533017	924.2712511366075	1858.18119651841	295.503051143194	870.0841058089075	1825.990208902248	326.0293703542361	899.2398806857848	2036.177640139354	627.6860499091931	829.6578794695181	1981.640197990491	637.8072488568355	874.9665366331511	2042.203040918985	737.2617956242035	817.1161824521694	1993.123276653351	747.3367668531512	863.7135407876536	2212.920797798464	999.3713432816656	1107.760105062787	2222.111212052328	152.1489850047052	1058.10813424405	2030.813415988922	169.9855168053809	1032.778201560875	2062.375323589195	175.5500668509397	1080.838854814676	2054.342808461879	207.5191346046309	1035.524783901446	2143.813739711234	1076.897371405264	1161.459423878953	2238.173647125888	100.3716560135986	1005.34655712743	2203.797351978902	103.4609506560818	1116.174773713929	2037.27826929868	1041.326331896922	1051.944254444467	2146.916210828339	281.4318996050688	1097.755474060665	2116.684986403161	303.4517321420584	1056.501050745505	2176.838218874588	355.8086679774713	1112.952394427009	2147.804574084126	375.898015823779	1072.636897438893	2282.261194432665	657.8398222001011	1150.713525736076	2228.327611203538	626.8076861276564	1112.847877396568	2215.594612245014	741.8416159320967	1172.743599674174	2163.162204952796	710.3215195424885	1139.348212585463	
567	3.773333333333333	2212.791248340921	992.1148519443309	879.4281068440864	1676.366013376792	152.3565637502765	965.8627761887807	1703.911217783555	150.041565222894	921.0510521872711	1705.992196811108	184.7827463021121	960.0557500047449	2138.843654041521	1066.912398524233	830.3097570079865	1871.221874664073	51.13113693352979	1007.405654308288	1829.547186804998	49.13181170479725	892.9908882844958	2037.12730280468	1048.557316563586	947.1984786133731	1812.002895794401	235.7672037672986	894.4049618959865	1778.793714325969	261.9709721195908	923.3894534002462	1848.674437852114	303.2394983831213	868.8530493348825	1816.901266320033	333.3311176698288	898.9759556486619	2030.196416544431	634.6156060778933	829.2973832667818	1976.370317184083	645.7269503855179	875.3265150157579	2038.463089009085	744.1610720942791	817.353101885475	1990.180266107744	754.9983086319597	864.5419992080811	2213.315994218777	1005.837899219974	1108.019091638847	2242.230728020193	148.7354617583365	1054.015863612183	2050.374285551234	155.5836542224029	1029.432861982955	2081.636605849681	162.4110428389514	1077.482106156169	2071.606387912807	194.4159462522921	1032.639018397433	2144.207377923062	1084.578626898401	1161.003311375592	2261.259051988067	98.79670850388197	1000.549379035778	2227.0683755505	98.33856603351775	1111.537122550284	2038.436125059103	1047.37604623706	1051.916264344462	2159.788289267726	273.0677074678151	1095.434787790438	2128.228073702227	293.7242485881332	1054.523144605584	2185.369446135428	348.867841682749	1111.446298336718	2155.029188716137	367.6555057894961	1071.463811498102	2279.844664411104	662.0418091742926	1150.411533242153	2225.309363984164	631.5863297032332	1112.972700588733	2214.328849659069	746.8246786300294	1172.837773442417	2161.384878639093	716.0605995638558	1139.732044245619	
